name C:\Users\Nicos\Desktop\Gil_twoSteps\Study2\ExperimentalData\IK_Splined\twoSteps_IK_BSplines_160_meshInts_study2_p02_s_01_lowIK_modROI.mot
datacolumns 38
datarows 15
range 0.32800000 0.33793249
endheader
                time	         pelvis_tilt	         pelvis_list	     pelvis_rotation	           pelvis_tx	           pelvis_ty	           pelvis_tz	       hip_flexion_r	     hip_adduction_r	      hip_rotation_r	        knee_angle_r	       ankle_angle_r	    subtalar_angle_r	         mtp_angle_r	       hip_flexion_l	     hip_adduction_l	      hip_rotation_l	        knee_angle_l	       ankle_angle_l	    subtalar_angle_l	         mtp_angle_l	    lumbar_extension	      lumbar_bending	     lumbar_rotation	          arm_flex_r	           arm_add_r	           arm_rot_r	        elbow_flex_r	           pro_sup_r	        wrist_flex_r	         wrist_dev_r	          arm_flex_l	           arm_add_l	           arm_rot_l	        elbow_flex_l	           pro_sup_l	        wrist_flex_l	         wrist_dev_l	
          0.32800000	        -23.90389545	         -6.37880226	          9.46812511	         -1.36070120	          0.83287114	          0.29608108	         79.49360533	         -5.90578715	         -3.03658137	        -86.15191785	          5.84322155	        -23.61871216	          0.17791965	         -5.33351959	         -4.90062564	         10.00282354	        -37.52572217	        -33.62472454	          6.85037644	          6.80959484	        -21.33298883	         17.03270628	         -0.33177170	        -65.85671796	          7.89205003	        -31.54172208	         65.10485953	         72.01299126	         -3.60719660	          8.11917107	         31.24107719	         -6.62914574	         22.80025574	        139.51487488	         49.05107705	         -6.15722741	          5.23680894	
          0.32842251	        -23.84479462	         -6.30937658	          9.42854792	         -1.35859349	          0.83315732	          0.29609309	         79.18856046	         -5.89929394	         -3.00335035	        -85.98925901	          5.78931010	        -23.56339362	          0.22441168	         -5.23961309	         -4.80448382	          9.83251796	        -37.83549582	        -33.63340669	          7.03048503	          6.91273127	        -21.44667863	         16.97941432	         -0.38509452	        -65.60938053	          7.72194959	        -31.45556160	         65.18706513	         72.00597611	         -3.59515063	          8.13565351	         30.78425251	         -6.71366221	         22.57937296	        139.28891005	         49.05116955	         -6.20497251	          5.26363342	
          0.32975749	        -23.65806011	         -6.09001980	          9.30350014	         -1.35193398	          0.83406154	          0.29613103	         78.22474318	         -5.87877804	         -2.89835389	        -85.47532345	          5.61897191	        -23.38860959	          0.37130753	         -4.94290691	         -4.50071491	          9.29442185	        -38.81425410	        -33.66083872	          7.59955467	          7.23860030	        -21.80589198	         16.81103348	         -0.55357287	        -64.82789520	          7.18450164	        -31.18332967	         65.44680128	         71.98381113	         -3.55709028	          8.18773127	         29.34087302	         -6.98069973	         21.88147354	        138.57495343	         49.05146181	         -6.35582751	          5.34838780	
          0.33072500	        -23.52276156	         -5.93226704	          9.21336917	         -1.34710768	          0.83471468	          0.29616027	         77.52466137	         -5.86425005	         -2.82406973	        -85.10134911	          5.50171284	        -23.26005799	          0.48027483	         -4.72640615	         -4.28327406	          8.90310061	        -39.52562105	        -33.67852691	          7.99192961	          7.47045364	        -22.06555934	         16.68955326	         -0.67624126	        -64.26040381	          6.79492798	        -30.98343097	         65.63527744	         71.96832724	         -3.52955772	          8.22541375	         28.29593969	         -7.17231825	         21.37248148	        138.05160805	         49.04976150	         -6.46500152	          5.41007867	
          0.33072500	        -23.52276156	         -5.93226704	          9.21336917	         -1.34710768	          0.83471468	          0.29616027	         77.52466137	         -5.86425005	         -2.82406973	        -85.10134911	          5.50171284	        -23.26005799	          0.48027483	         -4.72640615	         -4.28327406	          8.90310061	        -39.52562105	        -33.67852691	          7.99192961	          7.47045364	        -22.06555934	         16.68955326	         -0.67624126	        -64.26040381	          6.79492798	        -30.98343097	         65.63527744	         71.96832724	         -3.52955772	          8.22541375	         28.29593969	         -7.17231825	         21.37248148	        138.05160805	         49.04976150	         -6.46500152	          5.41007867	
          0.33114751	        -23.46374045	         -5.86553060	          9.17488255	         -1.34500028	          0.83499605	          0.29617611	         77.21619130	         -5.85850500	         -2.79481561	        -84.93539239	          5.46139664	        -23.20061701	          0.53226694	         -4.62928455	         -4.19309077	          8.72985574	        -39.83982257	        -33.68239450	          8.12800900	          7.56410915	        -22.17777677	         16.63747520	         -0.73080353	        -64.01062093	          6.62469362	        -30.89156250	         65.71799615	         71.96258555	         -3.51762479	          8.24176313	         27.84163654	         -7.25262934	         21.14458876	        137.81267075	         49.04565616	         -6.51240111	          5.43748614	
          0.33248249	        -23.27725786	         -5.65467067	          9.05328055	         -1.33834178	          0.83588509	          0.29622617	         76.24155180	         -5.84035301	         -2.70238455	        -84.41103689	          5.33401390	        -23.01280778	          0.69654079	         -4.32241997	         -3.90814838	          8.18247266	        -40.83257113	        -33.69461448	          8.55796431	          7.86002235	        -22.53233802	         16.47292977	         -0.90319803	        -63.22140897	          6.08682251	        -30.60129562	         65.97935352	         71.94444418	         -3.47992159	          8.29342050	         26.40622401	         -7.50637961	         20.42454079	        137.05772641	         49.03268494	         -6.66216445	          5.52408257	
          0.33345000	        -23.14216372	         -5.50275134	          8.96556225	         -1.33351625	          0.83652762	          0.29626406	         75.53403715	         -5.82740328	         -2.63670849	        -84.03000321	          5.24705009	        -22.87523288	          0.81744290	         -4.09891086	         -3.70368217	          7.78493271	        -41.55353798	        -33.70152899	          8.85468793	          8.07099911	        -22.78871518	         16.35401067	         -1.02850674	        -62.64850104	          5.69712966	        -30.38910414	         66.16876908	         71.93173758	         -3.45265487	          8.33078864	         25.36714276	         -7.68889403	         19.90064189	        136.50589415	         49.02182629	         -6.77052037	          5.58700928	
          0.33345000	        -23.14216372	         -5.50275134	          8.96556225	         -1.33351625	          0.83652762	          0.29626406	         75.53403715	         -5.82740328	         -2.63670849	        -84.03000321	          5.24705009	        -22.87523288	          0.81744290	         -4.09891086	         -3.70368217	          7.78493271	        -41.55353798	        -33.70152899	          8.85468793	          8.07099911	        -22.78871518	         16.35401067	         -1.02850674	        -62.64850104	          5.69712966	        -30.38910414	         66.16876908	         71.93173758	         -3.45265487	          8.33078864	         25.36714276	         -7.68889403	         19.90064189	        136.50589415	         49.02182629	         -6.77052037	          5.58700928	
          0.33387251	        -23.08338623	         -5.43978543	          8.92880159	         -1.33140967	          0.83680147	          0.29628668	         75.22075230	         -5.82252025	         -2.61295266	        -83.85981780	          5.22916541	        -22.80967279	          0.87716384	         -3.99713822	         -3.62206046	          7.60822492	        -41.87392688	        -33.69726408	          8.92843234	          8.15006034	        -22.89846466	         16.30333283	         -1.08460468	        -62.39482076	          5.52742499	        -30.28960501	         66.25148000	         71.92784393	         -3.44096686	          8.34684371	         24.91797661	         -7.76338478	         19.66417295	        136.24731434	         49.01161558	         -6.81714816	          5.61511354	
          0.33520749	        -22.89767337	         -5.24083885	          8.81265292	         -1.32475374	          0.83766674	          0.29635816	         74.23090009	         -5.80709187	         -2.53789394	        -83.32210138	          5.17265710	        -22.60252965	          1.06585765	         -3.67557823	         -3.36416916	          7.04990041	        -42.88622501	        -33.68378873	          9.16143460	          8.39986154	        -23.24522824	         16.14321156	         -1.26185128	        -61.59329463	          4.99122749	        -29.97522837	         66.51281277	         71.91554159	         -3.40403753	          8.39757120	         23.49879493	         -7.99874512	         18.91702762	        135.43030770	         48.97935391	         -6.96447291	          5.70391154	
          0.33617500	        -22.76308901	         -5.09675707	          8.72852444	         -1.31992991	          0.83829362	          0.29641017	         73.51337881	         -5.79592878	         -2.48364426	        -82.93228816	          5.13238956	        -22.45223058	          1.20281945	         -3.44239837	         -3.17750248	          6.64517586	        -43.62005100	        -33.67377405	          9.32858115	          8.58047612	        -23.49646655	         16.02719682	         -1.39034646	        -61.01227662	          4.60265055	        -29.74718288	         66.70219935	         71.90667722	         -3.37728151	          8.43432571	         22.47042409	         -8.16916234	         18.37532741	        134.83761710	         48.95580194	         -7.07121962	          5.76828441	
          0.33617500	        -22.76308901	         -5.09675707	          8.72852444	         -1.31992991	          0.83829362	          0.29641017	         73.51337881	         -5.79592878	         -2.48364426	        -82.93228816	          5.13238956	        -22.45223058	          1.20281945	         -3.44239837	         -3.17750248	          6.64517586	        -43.62005100	        -33.67377405	          9.32858115	          8.58047612	        -23.49646655	         16.02719682	         -1.39034646	        -61.01227662	          4.60265055	        -29.74718288	         66.70219935	         71.90667722	         -3.37728151	          8.43432571	         22.47042409	         -8.16916234	         18.37532741	        134.83761710	         48.95580194	         -7.07121962	          5.76828441	
          0.33659751	        -22.70476864	         -5.03849457	          8.69401589	         -1.31782469	          0.83855734	          0.29644249	         73.19415665	         -5.79188629	         -2.46663219	        -82.75729701	          5.14563094	        -22.37882048	          1.27192154	         -3.33469098	         -3.10670333	          6.46476286	        -43.94806134	        -33.65824367	          9.32431808	          8.64015344	        -23.60273382	         15.97798465	         -1.44810482	        -60.75333475	          4.43428084	        -29.63849694	         66.78432066	         71.90512739	         -3.36597113	          8.44992811	         22.02913775	         -8.23644528	         18.12931695	        134.55323022	         48.93786136	         -7.11666200	          5.79715831	
          0.33793249	        -22.52050008	         -4.85440885	          8.58498296	         -1.31117303	          0.83939061	          0.29654458	         72.18554492	         -5.77911369	         -2.41288096	        -82.20439641	          5.18746828	        -22.14687453	          1.49025596	         -2.99437958	         -2.88300691	          5.89473142	        -44.98444012	        -33.60917402	          9.31084852	          8.82870940	        -23.93849502	         15.82249428	         -1.63059767	        -59.93518412	          3.90230128	        -29.29509372	         67.04379048	         71.90023055	         -3.33023493	          8.49922534	         20.63485304	         -8.44903191	         17.35202430	        133.65468378	         48.88117645	         -7.26024138	          5.88838804	
